<?xml version="1.0" ?><!DOCTYPE svg  PUBLIC '-//W3C//DTD SVG 1.1//EN'  'http://www.w3.org/Graphics/SVG/1.1/DTD/svg11.dtd'><svg enable-background="new 0 0 256 256" height="256px" id="Capa_1" version="1.1" viewBox="0 0 256 256" width="256px" xml:space="preserve" xmlns="http://www.w3.org/2000/svg" xmlns:xlink="http://www.w3.org/1999/xlink"><g><path fill="#56585d" d="M188.593,225.863c-3.299,0-6.962-0.338-11.036-1.11c-19.758-3.741-40.143-16.507-59.856-28.852   c-19.6-12.274-39.866-24.966-50.58-21.557c-1.254,0.399-5.072,1.615-8.27,9.287c-2.89,6.933-3.074,12.165-0.544,15.548   c5.333,7.136,23.637,10.14,46.636,7.654c0.599-0.064,0.899-0.097,1.343-0.097v15c0.085,0,0.294,0.004,0.619-0.027l-0.349,0.037   c-40.339,4.365-55.072-6.64-60.265-13.587c-4.075-5.453-7.606-15.136-1.286-30.299c3.896-9.347,9.806-15.339,17.565-17.809   c17.332-5.517,38.539,7.761,63.092,23.137c18.536,11.608,37.704,23.611,54.686,26.827c7.693,1.456,17.699,1.778,21.702-4.958   c3.564-6.003,1.684-16.041-2.381-21.004c-0.599-0.73-1.7-1.837-2.504-1.986c-9.207,5.618-20.188,7.492-30.381,5.226l-0.314,0.045   l-1.646-0.534c-2.2-0.609-4.336-1.4-6.352-2.352c-0.21-0.099-0.413-0.203-0.617-0.308c-39.525-17.043-82.553-68.709-94.937-84.32   c-0.599-0.713-1.136-1.395-1.636-2.079c-1.158-1.499-2.071-2.94-2.762-4.349c-10.323-18.778-3.801-43.02,14.91-55.283   c0.41-0.268,1.196-0.812,2.158-1.474c5.126-3.531,7.678-5.227,9.243-5.943l4.02-1.838l3.555,2.625   c9.233,6.819,17.938,16.257,25.17,27.293c6.798,10.372,11.818,21.455,14.519,32.052l1.101,4.319l-3.267,3.031   c-0.908,0.842-3.132,2.622-5.418,4.385c5.191,5.841,10.208,11.168,18.743,18.291c1.413-2.697,2.839-5.33,3.506-6.321l2.468-3.667   l4.403,0.382c11.435,0.992,23.786,4.495,35.72,10.129c11.213,5.294,21.283,12.124,29.121,19.75l3.061,2.979l-0.999,4.152   c-0.305,1.263-3.134,12.523-8.795,18.892l-11.211-9.965c1.631-1.835,3.139-5.325,4.184-8.326   c-6.125-5.281-13.567-10.046-21.765-13.917c-8.673-4.095-17.517-6.884-25.855-8.173c-1.565,2.968-3.456,6.662-3.953,7.715   c-0.152,0.322-0.288,0.641-0.424,0.959l-3.825,8.914l-7.678-5.912c-16.062-12.457-22.793-20.099-30.588-28.948   c-0.915-1.039-1.848-2.098-2.816-3.188l-5.964-6.71l7.83-4.775c0.222-0.135,0.445-0.269,0.665-0.413   c0.896-0.587,3.604-2.63,5.908-4.422c-2.468-7.626-6.296-15.488-11.213-22.991c-5.203-7.937-11.216-14.872-17.58-20.302   c-1.27,0.859-2.552,1.743-3.355,2.295c-1.09,0.75-1.982,1.364-2.445,1.667c-12.229,8.015-16.585,23.669-9.917,35.636l0.226,0.438   c0.174,0.367,0.523,0.986,1.2,1.851l0.187,0.246c0.326,0.448,0.689,0.909,1.111,1.409l0.147,0.179   c6.73,8.491,20.587,25.233,37.766,41.968c19.414,18.912,36.784,31.721,51.626,38.07l0.89,0.436   c1.257,0.593,2.611,1.091,4.017,1.476l0.178,0.047c6.665,1.774,14.036,0.635,20.228-3.128l1.674-1.069l0.822-0.288   c6.835-2.395,14.114,0.078,19.471,6.619c7.503,9.165,10.929,25.947,3.671,38.167C211.791,218.028,204.443,225.862,188.593,225.863z   "/></g></svg>