<?xml version="1.0" encoding="utf-8"?>
<!-- Generator: Adobe Illustrator 15.1.0, SVG Export Plug-In . SVG Version: 6.00 Build 0)  -->
<!DOCTYPE svg PUBLIC "-//W3C//DTD SVG 1.1//EN" "http://www.w3.org/Graphics/SVG/1.1/DTD/svg11.dtd">
<svg version="1.1" id="Layer_1" xmlns="http://www.w3.org/2000/svg" xmlns:xlink="http://www.w3.org/1999/xlink" x="0px" y="0px"
	 width="102px" height="102px" viewBox="0 0 102 102" enable-background="new 0 0 102 102" xml:space="preserve">
<g>
	<g>
		<path d="M51,96c24.853,0,45-20.147,45-45S75.853,6,51,6S6,26.147,6,51S26.147,96,51,96"/>
		<path fill="#1C1C1A" d="M42.06,32.492c1.912-3.132,4.846-4.754,8.802-4.871c4.057,0.117,7.063,1.694,9.021,4.732
			c1.956,3.039,2.934,6.691,2.934,10.959c0,4.268-0.978,7.896-2.934,10.888c-1.957,3.179-4.964,4.802-9.021,4.871
			c-3.829-0.07-6.744-1.647-8.741-4.73c-2.019-2.993-3.028-6.669-3.028-11.03C39.093,39.229,40.081,35.624,42.06,32.492
			 M50.861,61.402c5.575-0.045,9.54-2.829,11.893-8.349h0.124v8.419c0,0.627-0.042,1.6-0.124,2.922
			c-0.167,1.367-0.616,2.842-1.344,4.418c-0.729,1.484-1.904,2.75-3.525,3.793c-1.604,1.136-3.84,1.727-6.713,1.773
			c-2.768,0-5.107-0.719-7.023-2.157c-1.958-1.415-3.101-3.71-3.434-6.888h-2.435c0.25,4.127,1.571,7.073,3.963,8.837
			c2.33,1.692,5.286,2.539,8.866,2.539c3.536,0,6.294-0.66,8.271-1.983c1.956-1.275,3.359-2.865,4.214-4.767
			c0.853-1.901,1.363-3.712,1.527-5.427c0.128-1.717,0.189-2.946,0.189-3.688V26.125h-2.436v7.654h-0.123
			c-0.938-2.806-2.487-4.929-4.652-6.367c-2.185-1.415-4.599-2.123-7.24-2.123c-4.601,0.093-8.096,1.868-10.488,5.323
			c-2.457,3.433-3.683,7.667-3.683,12.699c0,5.172,1.164,9.451,3.494,12.836C42.537,59.605,46.095,61.357,50.861,61.402"/>
		<path fill="#FFFFFF" stroke="#FFFFFF" stroke-width="4" stroke-miterlimit="10" d="M42.06,32.492
			c1.912-3.132,4.846-4.754,8.802-4.871c4.057,0.117,7.063,1.694,9.021,4.732c1.956,3.039,2.934,6.691,2.934,10.959
			c0,4.268-0.978,7.896-2.934,10.888c-1.957,3.179-4.964,4.802-9.021,4.871c-3.829-0.07-6.744-1.647-8.741-4.73
			c-2.019-2.993-3.028-6.669-3.028-11.03C39.093,39.229,40.081,35.624,42.06,32.492z M50.861,61.402
			c5.575-0.045,9.54-2.829,11.893-8.349h0.124v8.419c0,0.627-0.042,1.6-0.124,2.922c-0.167,1.367-0.616,2.842-1.344,4.418
			c-0.729,1.484-1.904,2.75-3.525,3.793c-1.604,1.136-3.84,1.727-6.713,1.773c-2.768,0-5.107-0.719-7.023-2.157
			c-1.958-1.415-3.101-3.71-3.434-6.888h-2.435c0.25,4.127,1.571,7.073,3.963,8.837c2.33,1.692,5.286,2.539,8.866,2.539
			c3.536,0,6.294-0.66,8.271-1.983c1.956-1.275,3.359-2.865,4.214-4.767c0.853-1.901,1.363-3.712,1.527-5.427
			c0.128-1.717,0.189-2.946,0.189-3.688V26.125h-2.436v7.654h-0.123c-0.938-2.806-2.487-4.929-4.652-6.367
			c-2.185-1.415-4.599-2.123-7.24-2.123c-4.601,0.093-8.096,1.868-10.488,5.323c-2.457,3.433-3.683,7.667-3.683,12.699
			c0,5.172,1.164,9.451,3.494,12.836C42.537,59.605,46.095,61.357,50.861,61.402z"/>
	</g>
</g>
</svg>
